# xmcd
#
# Track frame offsets:
#	150
#	11173
#	23713
#	35884
#	46079
#	56512
#	70531
#	80497
#	90499
#	101116
#	110825
#	124338
#	139207
#	152291
#	166099
#	177721
#	189821
#	203047
#	215187
#	226967
#	239038
#
# Disc length: 3360 seconds
# Revision: 0
# Processed by: cddbd v1.5.2PL0 Copyright (c) Steve Scherf et al.
# Submitted via: dBpowerAMP V12.0
#
DISCID=250d1e15
DTITLE=The Stanley Brothers - Selected Sides 1947-1953: Bristol, Virginia and Nashville, Tennessee
DYEAR=2004
DGENRE=Country
TTITLE0=Molly and Tenbrooks
TTITLE1=The Rambler's Blues
TTITLE2=Mother No Longer Awaits for Me at Home
TTITLE3=The Girl Behind the Bar
TTITLE4=Little Maggie
TTITLE5=The Little Glass of Wine
TTITLE6=Our Darling's Gone
TTITLE7=The Jealous Lover
TTITLE8=Death Is Only a Dream
TTITLE9=I Can Tell You the Time
TTITLE10=A Vision of Mother
TTITLE11=The White Dove
TTITLE12=Gathering Flowers for the Master's Bouquet
TTITLE13=The Angels Are Singing (In Heaven Tonight)
TTITLE14=It's Never Too Late
TTITLE15=Have You Someone (In Heaven Awaiting)
TTITLE16=Little Glass of Wine
TTITLE17=Let Me Be Your Friend
TTITLE18=We'll Be Sweethearts in Heaven
TTITLE19=I Love No One But You
TTITLE20=Too Late to Cry
EXTD=
EXTT0=
EXTT1=
EXTT2=
EXTT3=
EXTT4=
EXTT5=
EXTT6=
EXTT7=
EXTT8=
EXTT9=
EXTT10=
EXTT11=
EXTT12=
EXTT13=
EXTT14=
EXTT15=
EXTT16=
EXTT17=
EXTT18=
EXTT19=
EXTT20=
PLAYORDER=
